<mxfile host="app.diagrams.net" modified="2024-07-09T14:00:06.772Z" agent="Mozilla/5.0 (Windows NT 10.0; Win64; x64) AppleWebKit/537.36 (KHTML, like Gecko) Chrome/126.0.0.0 Safari/537.36" version="24.6.4" etag="OMpKmb92saRLV3TCRQxz" type="github">
  <diagram name="Page-1" id="MNdG49c5u27FDx_LrGYP">
    <mxGraphModel>
      <root>
        <mxCell id="0" />
        <mxCell id="1" parent="0" />
      </root>
    </mxGraphModel>
  </diagram>
</mxfile>
